<svg width="109" height="20" viewBox="0 0 109 20" fill="none" xmlns="http://www.w3.org/2000/svg">
<g clip-path="url(#clip0_9_12)">
<path d="M18.75 7.49883C19.0815 7.49883 19.3995 7.36713 19.6339 7.13271C19.8683 6.89829 20 6.58035 20 6.24883C20 5.91731 19.8683 5.59936 19.6339 5.36494C19.3995 5.13052 19.0815 4.99883 18.75 4.99883H15.7267L16.2375 1.42549C16.2607 1.26298 16.2517 1.09749 16.2109 0.938474C16.1702 0.779455 16.0985 0.630021 16 0.498704C15.9015 0.367386 15.7781 0.256757 15.6368 0.173133C15.4955 0.0895084 15.3392 0.0345265 15.1767 0.0113263C15.0142 -0.0118739 14.8487 -0.00283806 14.6896 0.0379179C14.5306 0.078674 14.3812 0.150352 14.2499 0.248859C14.1186 0.347367 14.0079 0.470775 13.9243 0.612037C13.8407 0.753299 13.7857 0.909649 13.7625 1.07216L13.2017 4.99883H8.22667L8.7375 1.42549C8.7607 1.26298 8.75166 1.09749 8.71091 0.938474C8.67015 0.779455 8.59847 0.630021 8.49997 0.498704C8.40146 0.367386 8.27805 0.256757 8.13679 0.173133C7.99553 0.0895084 7.83918 0.0345265 7.67667 0.0113263C7.51416 -0.0118739 7.34867 -0.00283806 7.18965 0.0379179C7.03063 0.078674 6.8812 0.150352 6.74988 0.248859C6.61856 0.347367 6.50793 0.470775 6.42431 0.612037C6.34068 0.753299 6.2857 0.909649 6.2625 1.07216L5.70167 4.99883H2.08333C1.75181 4.99883 1.43387 5.13052 1.19945 5.36494C0.965029 5.59936 0.833333 5.91731 0.833333 6.24883C0.833333 6.58035 0.965029 6.89829 1.19945 7.13271C1.43387 7.36713 1.75181 7.49883 2.08333 7.49883H5.34417L4.63 12.4988H1.25C0.918479 12.4988 0.600537 12.6305 0.366117 12.8649C0.131696 13.0994 0 13.4173 0 13.7488C0 14.0803 0.131696 14.3983 0.366117 14.6327C0.600537 14.8671 0.918479 14.9988 1.25 14.9988H4.27333L3.7625 18.5722C3.7393 18.7347 3.74834 18.9002 3.78909 19.0592C3.82985 19.2182 3.90153 19.3676 4.00003 19.4989C4.19898 19.7642 4.49513 19.9395 4.82333 19.9863C5.15154 20.0332 5.48491 19.9477 5.75012 19.7488C5.88144 19.6503 5.99207 19.5269 6.07569 19.3856C6.15932 19.2444 6.2143 19.088 6.2375 18.9255L6.79833 14.9988H11.7733L11.2625 18.5722C11.2156 18.9004 11.3011 19.2337 11.5 19.4989C11.699 19.7642 11.9951 19.9395 12.3233 19.9863C12.6515 20.0332 12.9849 19.9477 13.2501 19.7488C13.5153 19.5498 13.6906 19.2537 13.7375 18.9255L14.2983 14.9988H17.9167C18.2482 14.9988 18.5661 14.8671 18.8005 14.6327C19.035 14.3983 19.1667 14.0803 19.1667 13.7488C19.1667 13.4173 19.035 13.0994 18.8005 12.8649C18.5661 12.6305 18.2482 12.4988 17.9167 12.4988H14.6558L15.37 7.49883H18.75ZM12.13 12.4988H7.15583L7.87 7.49883H12.8442L12.13 12.4988Z" fill="#1C815A"/>
</g>
<path d="M29.152 16V4.752H31.328V16H29.152ZM30.752 16V14.08H36.976V16H30.752ZM30.752 11.184V9.328H36.416V11.184H30.752ZM30.752 6.672V4.752H36.896V6.672H30.752ZM43.385 16L41.353 12.864L40.921 12.544L37.913 8.272H40.393L42.265 11.104L42.665 11.408L45.849 16H43.385ZM37.753 16L40.905 11.584L42.105 13.008L40.121 16H37.753ZM42.745 12.528L41.513 11.12L43.353 8.272H45.705L42.745 12.528ZM49.9569 16.16C49.2529 16.16 48.6182 15.984 48.0529 15.632C47.4875 15.28 47.0449 14.8 46.7249 14.192C46.4049 13.584 46.2449 12.9013 46.2449 12.144C46.2449 11.376 46.4049 10.688 46.7249 10.08C47.0449 9.472 47.4875 8.992 48.0529 8.64C48.6182 8.288 49.2529 8.112 49.9569 8.112C50.5115 8.112 51.0075 8.224 51.4449 8.448C51.8822 8.672 52.2289 8.98667 52.4849 9.392C52.7515 9.78667 52.8955 10.2347 52.9169 10.736V13.52C52.8955 14.032 52.7515 14.4853 52.4849 14.88C52.2289 15.2747 51.8822 15.5893 51.4449 15.824C51.0075 16.048 50.5115 16.16 49.9569 16.16ZM50.3409 14.224C50.9275 14.224 51.4022 14.032 51.7649 13.648C52.1275 13.2533 52.3089 12.7467 52.3089 12.128C52.3089 11.7227 52.2235 11.3653 52.0529 11.056C51.8929 10.736 51.6635 10.4907 51.3649 10.32C51.0769 10.1387 50.7355 10.048 50.3409 10.048C49.9569 10.048 49.6155 10.1387 49.3169 10.32C49.0289 10.4907 48.7995 10.736 48.6289 11.056C48.4689 11.3653 48.3889 11.7227 48.3889 12.128C48.3889 12.544 48.4689 12.912 48.6289 13.232C48.7995 13.5413 49.0289 13.7867 49.3169 13.968C49.6155 14.1387 49.9569 14.224 50.3409 14.224ZM52.1969 16V13.92L52.5329 12.032L52.1969 10.176V8.272H54.2769V16H52.1969ZM56.1311 16V8.272H58.2271V16H56.1311ZM61.1711 16V11.44C61.1711 10.992 61.0271 10.6453 60.7391 10.4C60.4618 10.144 60.1151 10.016 59.6991 10.016C59.4218 10.016 59.1711 10.0747 58.9471 10.192C58.7231 10.2987 58.5471 10.4587 58.4191 10.672C58.2911 10.8853 58.2271 11.1413 58.2271 11.44L57.4111 11.04C57.4111 10.4427 57.5391 9.92533 57.7951 9.488C58.0618 9.05067 58.4191 8.71467 58.8671 8.48C59.3151 8.23467 59.8218 8.112 60.3871 8.112C60.9205 8.112 61.4058 8.23467 61.8431 8.48C62.2805 8.71467 62.6271 9.05067 62.8831 9.488C63.1391 9.91467 63.2671 10.432 63.2671 11.04V16H61.1711ZM66.2111 16V11.44C66.2111 10.992 66.0671 10.6453 65.7791 10.4C65.5018 10.144 65.1551 10.016 64.7391 10.016C64.4725 10.016 64.2218 10.0747 63.9871 10.192C63.7631 10.2987 63.5871 10.4587 63.4591 10.672C63.3311 10.8853 63.2671 11.1413 63.2671 11.44L62.0671 11.152C62.1098 10.5333 62.2751 10 62.5631 9.552C62.8511 9.09333 63.2298 8.74133 63.6991 8.496C64.1685 8.24 64.6911 8.112 65.2671 8.112C65.8431 8.112 66.3605 8.23467 66.8191 8.48C67.2778 8.71467 67.6405 9.056 67.9071 9.504C68.1738 9.952 68.3071 10.4853 68.3071 11.104V16H66.2111ZM74.2941 16.16C73.7395 16.16 73.2381 16.048 72.7901 15.824C72.3421 15.5893 71.9848 15.2747 71.7181 14.88C71.4515 14.4853 71.3075 14.032 71.2861 13.52V10.784C71.3075 10.272 71.4515 9.81867 71.7181 9.424C71.9955 9.01867 72.3528 8.69867 72.7901 8.464C73.2381 8.22933 73.7395 8.112 74.2941 8.112C75.0088 8.112 75.6488 8.288 76.2141 8.64C76.7795 8.992 77.2221 9.472 77.5421 10.08C77.8728 10.688 78.0381 11.376 78.0381 12.144C78.0381 12.9013 77.8728 13.584 77.5421 14.192C77.2221 14.8 76.7795 15.28 76.2141 15.632C75.6488 15.984 75.0088 16.16 74.2941 16.16ZM73.9261 14.224C74.3101 14.224 74.6515 14.1387 74.9501 13.968C75.2488 13.7867 75.4781 13.5413 75.6381 13.232C75.8088 12.912 75.8941 12.544 75.8941 12.128C75.8941 11.7227 75.8088 11.3653 75.6381 11.056C75.4781 10.736 75.2488 10.4907 74.9501 10.32C74.6515 10.1387 74.3101 10.048 73.9261 10.048C73.5528 10.048 73.2168 10.1387 72.9181 10.32C72.6195 10.4907 72.3848 10.736 72.2141 11.056C72.0541 11.3653 71.9741 11.7227 71.9741 12.128C71.9741 12.544 72.0541 12.912 72.2141 13.232C72.3848 13.5413 72.6141 13.7867 72.9021 13.968C73.2008 14.1387 73.5421 14.224 73.9261 14.224ZM70.0061 19.232V8.272H72.1021V10.304L71.7501 12.176L72.0861 14.048V19.232H70.0061ZM79.4124 16V4.432H81.5084V16H79.4124ZM87.0615 16.16C86.2508 16.16 85.5308 15.9893 84.9015 15.648C84.2722 15.296 83.7708 14.816 83.3975 14.208C83.0348 13.6 82.8535 12.9067 82.8535 12.128C82.8535 11.36 83.0295 10.6773 83.3815 10.08C83.7442 9.472 84.2348 8.992 84.8535 8.64C85.4722 8.27733 86.1602 8.096 86.9175 8.096C87.6642 8.096 88.3202 8.26667 88.8855 8.608C89.4615 8.93867 89.9095 9.39733 90.2295 9.984C90.5602 10.56 90.7255 11.216 90.7255 11.952C90.7255 12.0907 90.7148 12.2347 90.6935 12.384C90.6828 12.5227 90.6562 12.6827 90.6135 12.864L84.1175 12.88V11.312L89.6375 11.296L88.7895 11.952C88.7682 11.4933 88.6828 11.1093 88.5335 10.8C88.3948 10.4907 88.1868 10.256 87.9095 10.096C87.6428 9.92533 87.3122 9.84 86.9175 9.84C86.5015 9.84 86.1388 9.936 85.8295 10.128C85.5202 10.3093 85.2802 10.5707 85.1095 10.912C84.9495 11.2427 84.8695 11.6373 84.8695 12.096C84.8695 12.5653 84.9548 12.976 85.1255 13.328C85.3068 13.6693 85.5628 13.936 85.8935 14.128C86.2242 14.3093 86.6082 14.4 87.0455 14.4C87.4402 14.4 87.7975 14.336 88.1175 14.208C88.4375 14.0693 88.7148 13.8667 88.9495 13.6L90.1815 14.832C89.8082 15.2693 89.3495 15.6 88.8055 15.824C88.2722 16.048 87.6908 16.16 87.0615 16.16ZM93.4618 16.16C93.0778 16.16 92.7631 16.032 92.5178 15.776C92.2724 15.52 92.1497 15.2053 92.1497 14.832C92.1497 14.4587 92.2724 14.144 92.5178 13.888C92.7631 13.632 93.0778 13.504 93.4618 13.504C93.8351 13.504 94.1444 13.632 94.3898 13.888C94.6351 14.144 94.7578 14.4587 94.7578 14.832C94.7578 15.2053 94.6351 15.52 94.3898 15.776C94.1444 16.032 93.8351 16.16 93.4618 16.16ZM96.7405 16V8.272H98.8525V16H96.7405ZM97.7965 7.024C97.4552 7.024 97.1725 6.912 96.9485 6.688C96.7245 6.45333 96.6125 6.16533 96.6125 5.824C96.6125 5.49333 96.7245 5.21067 96.9485 4.976C97.1725 4.74133 97.4552 4.624 97.7965 4.624C98.1485 4.624 98.4312 4.74133 98.6445 4.976C98.8685 5.21067 98.9805 5.49333 98.9805 5.824C98.9805 6.16533 98.8685 6.45333 98.6445 6.688C98.4312 6.912 98.1485 7.024 97.7965 7.024ZM104.341 16.16C103.563 16.16 102.859 15.984 102.229 15.632C101.611 15.2693 101.115 14.784 100.741 14.176C100.379 13.5573 100.197 12.8693 100.197 12.112C100.197 11.3547 100.379 10.6773 100.741 10.08C101.104 9.472 101.6 8.992 102.229 8.64C102.859 8.27733 103.557 8.096 104.325 8.096C105.115 8.096 105.819 8.27733 106.437 8.64C107.067 8.992 107.563 9.472 107.925 10.08C108.288 10.6773 108.469 11.3547 108.469 12.112C108.469 12.8693 108.288 13.5573 107.925 14.176C107.563 14.784 107.067 15.2693 106.437 15.632C105.819 15.984 105.12 16.16 104.341 16.16ZM104.325 14.208C104.72 14.208 105.067 14.1227 105.365 13.952C105.675 13.7707 105.909 13.5253 106.069 13.216C106.24 12.896 106.325 12.5333 106.325 12.128C106.325 11.7227 106.24 11.3653 106.069 11.056C105.899 10.7467 105.664 10.5067 105.365 10.336C105.067 10.1547 104.72 10.064 104.325 10.064C103.941 10.064 103.6 10.1547 103.301 10.336C103.003 10.5067 102.768 10.7467 102.597 11.056C102.427 11.3653 102.341 11.7227 102.341 12.128C102.341 12.5333 102.427 12.896 102.597 13.216C102.768 13.5253 103.003 13.7707 103.301 13.952C103.6 14.1227 103.941 14.208 104.325 14.208Z" fill="black"/>
<defs>
<clipPath id="clip0_9_12">
<rect width="20" height="20" fill="white"/>
</clipPath>
</defs>
</svg>
